<svg width="47" height="40" viewBox="0 0 47 40" fill="none" xmlns="http://www.w3.org/2000/svg">
<path d="M16.46 13.9733C20.9724 13.9679 25.4862 13.96 29.9986 13.96C30.1267 13.96 30.2535 14.0199 30.3816 14.0532V19.551C30.0289 19.551 29.7824 19.551 29.5358 19.551C25.3402 19.551 21.1446 19.5483 16.949 19.5563C16.6873 19.5563 16.4256 19.6442 16.1638 19.6908C16.0743 19.4844 15.9118 19.2807 15.909 19.0729C15.887 17.567 15.8966 16.0597 15.8966 14.5538C15.8966 14.2556 15.8787 13.9466 16.3374 13.9786C16.3787 13.9786 16.4187 13.9759 16.46 13.9746V13.9733Z" fill="#784BD2"/>
<path d="M32.3288 19.5628C32.2724 19.4043 32.1677 19.2459 32.1663 19.0861C32.1525 17.5549 32.1594 16.0237 32.1553 14.4924C32.1553 14.1982 32.1897 13.9465 32.5905 13.9758C32.6319 13.9758 32.6718 13.9731 32.7131 13.9718C37.2256 13.9665 41.738 13.9598 46.2504 13.9585C46.3785 13.9585 46.5052 14.0184 46.6333 14.0517C46.6292 15.4937 46.6361 16.9357 46.6154 18.3764C46.6099 18.7599 46.5218 19.142 46.4653 19.5615H32.3275L32.3288 19.5628Z" fill="#784BD2"/>
<path d="M24.8737 33.0348C24.7883 32.8857 24.6299 32.7379 24.6285 32.5874C24.6106 30.9097 24.6175 29.232 24.6175 27.5077C24.8393 27.4611 25.0087 27.3945 25.1795 27.3945C29.8476 27.3972 34.5156 27.4052 39.1837 27.4132C39.192 27.4664 39.1989 27.5197 39.2071 27.5743C39.1617 29.3132 39.1176 31.0535 39.0708 32.863C38.7209 32.863 38.473 32.863 38.2264 32.863C34.0735 32.863 29.9206 32.8604 25.7677 32.8683C25.5046 32.8683 25.2415 32.9496 24.9798 32.9935C24.9426 33.0015 24.9081 33.0148 24.8765 33.0348H24.8737Z" fill="#784BD2"/>
<path d="M32.281 26.243C32.2411 26.1405 32.1667 26.038 32.1667 25.9354C32.1626 24.295 32.1667 22.6546 32.1736 21.0129C32.1736 20.9516 32.219 20.8917 32.2714 20.7599C32.489 20.7466 32.7314 20.7199 32.9739 20.7199C37.332 20.7173 41.6902 20.7173 46.0497 20.7239C46.2921 20.7239 46.5345 20.7932 46.777 20.8291C46.726 21.0608 46.6337 21.2911 46.631 21.5228C46.6158 22.7638 46.631 24.0061 46.6172 25.247C46.6144 25.5187 46.5373 25.7903 46.4739 26.1911H32.7232C32.6364 26.1937 32.5496 26.1964 32.4628 26.1977L32.4243 26.2297C32.3761 26.2337 32.3292 26.2377 32.281 26.2417V26.243Z" fill="#784BD2"/>
<path d="M15.9258 26.0808V20.808C16.1489 20.7734 16.3225 20.7228 16.496 20.7228C21.0553 20.7188 25.6159 20.7215 30.1752 20.7228C30.2895 20.7228 30.4038 20.7401 30.5182 20.7494C30.5113 20.7881 30.5085 20.8267 30.5071 20.8666C30.4631 21.0983 30.3845 21.3313 30.3818 21.563C30.3694 22.9145 30.3777 24.2659 30.3749 25.6174C30.3749 25.7839 30.3474 25.949 30.3391 26.0448C29.3391 26.0994 28.4066 26.1913 27.4727 26.1953C23.806 26.2086 20.1393 26.194 16.4726 26.1886C16.3748 26.2006 16.2756 26.2113 16.1778 26.2233C16.0952 26.1753 16.0112 26.1287 15.9285 26.0808H15.9258Z" fill="#784BD2"/>
<path d="M8.48385 32.874L8.47559 27.5334C8.56512 27.4921 8.65465 27.4495 8.74418 27.4082C13.5114 27.4135 18.2787 27.4202 23.0459 27.4255C23.0418 27.4655 23.0542 27.5001 23.0859 27.5267C23.0721 27.564 23.0624 27.6026 23.0556 27.6425C22.6699 27.5986 22.8145 27.8849 22.8131 28.0407C22.8035 29.3921 22.809 30.7436 22.8049 32.0951C22.8049 32.3294 22.7842 32.5651 22.7704 32.8647C22.455 32.8647 22.2084 32.8647 21.9619 32.8647C17.8131 32.8647 13.6657 32.862 9.51691 32.87C9.25245 32.87 8.98799 32.9446 8.72352 32.9845C8.64363 32.9486 8.56374 32.9126 8.48385 32.8767V32.874Z" fill="#784BD2"/>
<path d="M24.8575 39.6873C24.7763 39.4876 24.6261 39.2878 24.6234 39.0868C24.6069 37.5143 24.6165 35.9404 24.6234 34.3679C24.6234 34.3053 24.6592 34.2428 24.7005 34.1083C24.8947 34.087 25.1137 34.043 25.3314 34.043C29.7777 34.039 34.224 34.039 38.6703 34.043C38.8452 34.043 39.0215 34.1016 39.1965 34.1322C39.1965 35.9298 39.1965 37.7273 39.1965 39.5248H39.1978C38.9733 39.4836 38.7474 39.4436 38.5229 39.4037C34.3521 39.3997 30.1813 39.393 26.0091 39.3944C25.8589 39.3944 25.7102 39.4636 25.56 39.5009C25.4691 39.5009 25.3782 39.5009 25.2873 39.4995C25.2391 39.5022 25.1923 39.5035 25.144 39.5062L25.0297 39.6407L24.9994 39.666C24.9512 39.6726 24.9044 39.6793 24.8562 39.686L24.8575 39.6873Z" fill="#784BD2"/>
<path d="M0.22647 20.7931C0.22647 22.5933 0.215538 24.3922 0.23069 26.1564H0.61628H14.0695C14.0902 25.8382 14.115 25.6291 14.115 25.4188C14.1191 24.1339 14.1109 22.8476 14.1232 21.5627C14.1246 21.3297 14.2045 21.098 14.2486 20.865C14.2513 20.8264 14.2555 20.7891 14.261 20.7505C14.1246 20.7412 13.9869 20.7212 13.8505 20.7212C9.47722 20.7199 5.10529 20.7172 0.731983 20.7199C0.579089 20.7199 0.427573 20.7625 0.22647 20.7931Z" fill="#784BD2"/>
<path d="M41.0498 39.6405V34.2026H46.8722C46.8942 34.3997 46.9286 34.5715 46.9286 34.7419C46.9328 36.2691 46.9341 37.7964 46.9286 39.3223C46.9286 39.4954 46.8749 39.6685 46.8446 39.8416C44.9934 39.8349 43.1421 39.8282 41.2909 39.8216C41.211 39.7603 41.1297 39.7004 41.0498 39.6392V39.6405Z" fill="#DBDBDB"/>
<path d="M6.88012 27.7107V33.1579H1.03711V27.5177C2.93932 27.4964 4.82914 27.4751 6.71896 27.4551C6.77268 27.5403 6.8264 27.6255 6.8815 27.7107H6.88012Z" fill="#DBDBDB"/>
<path d="M46.8752 7.52344V13.1451H41.1631V7.52344H46.8752Z" fill="#DBDBDB"/>
<path d="M41.2653 0.791504H46.87V6.50233H41.1221V0.911339C41.1703 0.871394 41.2171 0.831449 41.2653 0.791504Z" fill="#DBDBDB"/>
<path d="M8.49454 19.6812C8.51107 18.0421 8.52898 16.403 8.54551 14.7652C8.54688 14.6148 8.54551 14.463 8.54551 14.2619C8.75212 14.2326 8.9243 14.1887 9.0951 14.1874C10.6543 14.182 12.2136 14.19 13.7728 14.1807C14.1557 14.1781 14.394 14.2753 14.3926 14.692C14.3858 16.2885 14.3871 17.8836 14.3802 19.4801C14.3802 19.5627 14.332 19.6452 14.2714 19.8396H8.60749C8.56892 19.7863 8.53173 19.7331 8.49316 19.6798L8.49454 19.6812Z" fill="#DBDBDB"/>
<path d="M41.1445 32.9939V27.5601H46.8705V33.2123H41.4186C41.3277 33.1391 41.2354 33.0672 41.1445 32.9939Z" fill="#DBDBDB"/>
</svg>
