<svg width="43" height="50" viewBox="0 0 43 50" fill="none" xmlns="http://www.w3.org/2000/svg">
<path d="M24.8251 36.5751C22.5528 34.8323 20.7464 32.5904 19.5568 30.0368C18.9609 28.7354 16.423 23.1306 19.1607 18.2404C19.8918 16.9798 20.8711 15.869 22.0437 14.9703C24.7687 12.8686 26.4346 13.5692 29.6737 11.9928C30.5983 11.5444 35.8085 9.01523 35.9938 5.04106C36.0992 2.77814 34.5405 0.965341 33.6521 0.100098C34.9626 0.498146 36.1658 1.16971 37.1764 2.06703C37.518 2.37179 38.8605 3.59084 39.4727 5.26525C41.1222 9.78064 36.4026 14.7339 36.0411 15.1034C35.2526 15.9091 33.5359 17.0126 30.1024 19.2177C26.2875 21.6698 25.8751 21.6698 25.0576 22.6857C22.8776 25.4093 23.0592 28.858 23.1464 30.4869C23.2675 32.6057 23.8388 34.678 24.8251 36.5751Z" fill="#4B86C0"/>
<path d="M1.54086 34.5189C1.30106 33.9847 -0.275796 30.3486 1.58627 27.4533C2.7998 25.5653 5.00522 24.7175 6.7347 24.0537C7.34507 23.8207 8.16439 23.777 9.33792 23.2935C10.215 22.9269 11.0524 22.4775 11.8377 21.9519C12.4481 21.5469 13.0329 21.1071 13.5889 20.6348C15.7508 18.7572 17.2531 15.5922 17.5002 15.065C19.2841 11.245 19.9835 7.49852 20.2833 5.00439C20.8568 5.70757 21.2406 6.53677 21.4005 7.41793C21.5121 8.10304 21.4806 8.80272 21.3079 9.47594C20.5994 12.4535 18.0379 18.3981 17.1296 21.8188C16.55 24.0186 15.5055 27.9876 17.3112 31.8356C18.5048 34.3753 20.3669 35.9604 22.9701 38.0955C26.7851 41.2341 28.9996 41.5984 30.8235 44.506C31.7007 45.937 32.2489 47.533 32.4313 49.186C31.2373 48.132 29.9311 47.2027 28.5345 46.4133C25.9912 44.9806 22.8702 43.2134 19.3695 43.7353C17.6709 43.9875 17.4275 44.5515 14.4355 45.0717C11.903 45.5131 10.9003 45.3152 10.3535 45.161C8.59132 44.6671 7.4886 43.4901 6.96721 42.8368C7.53943 43.1388 8.17164 43.3203 8.82201 43.3692C11.002 43.5216 12.8913 42.0451 13.7851 40.7753C16.0668 37.5367 13.8305 32.806 11.7868 30.4904C11.0601 29.6742 10.0228 28.5218 8.30787 28.2538C6.21512 27.928 4.56559 29.1436 4.12959 29.4623C1.74614 31.2278 1.56266 34.0478 1.54086 34.5189Z" fill="#CF432A"/>
<path d="M8.92735 21.5671C11.1033 21.5671 12.8673 19.8619 12.8673 17.7584C12.8673 15.6549 11.1033 13.9497 8.92735 13.9497C6.75134 13.9497 4.9873 15.6549 4.9873 17.7584C4.9873 19.8619 6.75134 21.5671 8.92735 21.5671Z" fill="#CF432A"/>
<path d="M30.1579 20.6099C29.4313 21.2194 24.083 25.8118 24.8242 31.8352C25.2129 34.9879 27.1186 37.2982 28.4412 38.9008C30.34 41.1859 32.7298 43.0473 35.4462 44.3567C34.0282 42.0459 33.1411 39.4687 32.8447 36.799C32.4736 33.2464 33.1486 29.6648 34.7922 26.4651C33.3718 26.8193 32.1148 27.6207 31.2206 28.7421C30.2078 30.0667 29.7599 31.7152 29.9689 33.3485C29.114 32.321 28.4853 31.1362 28.1214 29.8665C26.8098 25.2513 29.6565 21.2859 30.1579 20.6099Z" fill="#DA7B31"/>
<path d="M21.7168 4.02002C22.2917 4.8842 22.6563 5.86264 22.7832 6.88196C22.8158 7.16398 22.8813 7.89084 22.3671 10.4603C22.1437 11.5708 21.9239 12.478 21.764 13.098C22.3002 12.5446 22.9113 12.0633 23.5807 11.6671C25.3446 10.6162 26.8833 10.5584 28.1732 10.2817C29.5847 9.97861 31.5431 9.23073 33.7394 7.23927C32.983 7.48051 32.207 7.66038 31.4195 7.777C30.4207 7.91866 29.4146 8.00809 28.4057 8.04498C27.63 8.066 27.1195 8.04498 26.4565 8.31297C26.0638 8.47599 25.703 8.70291 25.3901 8.98376C25.52 8.2317 25.4404 7.45978 25.1593 6.74709C24.3073 4.66107 21.9875 4.08307 21.7168 4.02002Z" fill="#FCF250"/>
<path d="M30.622 22.8925C30.5492 22.0451 30.7261 21.1951 31.1325 20.4404C31.2706 20.1952 31.7447 19.407 33.5904 18.2948C34.4706 17.7613 35.4028 17.3119 36.3736 16.9532C37.9032 16.3945 39.8252 14.2611 41.6146 7.42676L42.3104 8.00827C40.2394 16.5906 38.1678 25.1741 36.0956 33.7588C37.1295 33.921 38.1224 34.2699 39.0222 34.787C39.6599 35.1565 41.0968 36.013 41.8035 37.6489C42.0342 38.1744 42.2341 38.642 42.0833 39.1692C41.7908 40.1921 40.3465 40.8927 39.1603 40.8244C36.8531 40.6913 35.2527 37.6366 34.9402 35.8606C34.8122 35.0524 34.7629 34.2344 34.793 33.4173C34.8549 32.8166 34.9766 32.223 35.1564 31.6448C36.2609 27.5901 36.5752 26.2361 36.7569 24.7701C36.8059 24.3726 36.8332 24.052 36.8495 23.8751C36.1416 24.3115 35.3545 24.6152 34.5296 24.7701C33.5559 24.9453 33.4396 24.7386 32.7675 24.9032C30.8527 25.3692 29.8608 27.4797 29.6628 27.9053C29.365 28.5407 29.1766 29.2187 29.1051 29.9126C28.6803 29.3023 28.4388 28.5906 28.4075 27.8563C28.3403 25.4147 30.929 23.185 33.278 22.4897C34.2989 22.1867 34.6059 22.3723 35.458 21.9519C36.9404 21.2216 37.7197 19.8169 38.1466 18.7327C37.3604 19.1573 36.5381 19.5164 35.6887 19.8064C34.3189 20.2758 33.7485 20.2688 32.9056 20.6996C32.2625 21.0254 31.4014 21.6367 30.622 22.8925Z" fill="#59A657"/>
</svg>
