<svg width="40" height="37" viewBox="0 0 40 37" fill="none" xmlns="http://www.w3.org/2000/svg">
<path d="M16.6667 32.125H23.3333C23.3333 33.9125 21.8333 35.375 20 35.375C18.1667 35.375 16.6667 33.9125 16.6667 32.125ZM35 28.875V30.5H5V28.875L8.33333 25.625V15.875C8.33333 10.8375 11.6667 6.45 16.6667 4.9875V4.5C16.6667 2.7125 18.1667 1.25 20 1.25C21.8333 1.25 23.3333 2.7125 23.3333 4.5V4.9875C28.3333 6.45 31.6667 10.8375 31.6667 15.875V25.625L35 28.875ZM28.3333 15.875C28.3333 11.325 24.6667 7.75 20 7.75C15.3333 7.75 11.6667 11.325 11.6667 15.875V27.25H28.3333V15.875Z" fill="#BFBFBF"/>
</svg>
