<svg width="50" height="50" viewBox="0 0 50 50" fill="none" xmlns="http://www.w3.org/2000/svg">
<path d="M20.8333 43.7498H29.1667C29.1667 46.0415 27.2917 47.9165 25 47.9165C22.7083 47.9165 20.8333 46.0415 20.8333 43.7498ZM43.75 39.5832V41.6665H6.25V39.5832L10.4167 35.4165V22.9165C10.4167 16.4582 14.5833 10.8332 20.8333 8.95817V8.33317C20.8333 6.0415 22.7083 4.1665 25 4.1665C27.2917 4.1665 29.1667 6.0415 29.1667 8.33317V8.95817C35.4167 10.8332 39.5833 16.4582 39.5833 22.9165V35.4165L43.75 39.5832ZM35.4167 22.9165C35.4167 17.0832 30.8333 12.4998 25 12.4998C19.1667 12.4998 14.5833 17.0832 14.5833 22.9165V37.4998H35.4167V22.9165Z" fill="#BFBFBF"/>
</svg>
