<svg width="27" height="22" viewBox="0 0 27 22" fill="none" xmlns="http://www.w3.org/2000/svg">
<path fill-rule="evenodd" clip-rule="evenodd" d="M5.41179 0C4.31741 0 3.43024 0.887167 3.43024 1.98155V14.0425C3.43024 15.1368 4.31741 16.024 5.41179 16.024H21.0086C22.103 16.024 22.9901 15.1368 22.9901 14.0425V1.98155C22.9901 0.887169 22.103 0 21.0086 0H5.41179ZM5.63196 13.8223V2.20172H20.7884V13.8223H5.63196Z" fill="#784BD2"/>
<path d="M1.15569 19.6886C0.517419 19.6886 0 20.206 0 20.8443C0 21.4826 0.51742 22 1.15569 22H25.265C25.9032 22 26.4206 21.4826 26.4206 20.8443C26.4206 20.206 25.9032 19.6886 25.265 19.6886H1.15569Z" fill="#784BD2"/>
</svg>
