<svg width="25" height="23" viewBox="0 0 25 23" fill="none" xmlns="http://www.w3.org/2000/svg">
<path fill-rule="evenodd" clip-rule="evenodd" d="M2.71459 18.6074V17.0676C2.71459 16.351 2.10615 15.768 1.3573 15.768C0.608444 15.768 0 16.351 0 17.0676V23H6.22485C6.9737 23 7.58214 22.417 7.58214 21.7005C7.58214 20.984 6.9737 20.4054 6.22485 20.4054H4.68034L9.68829 15.639C10.2031 15.1316 10.2031 14.3083 9.68829 13.8009C9.12665 13.298 8.28419 13.298 7.76936 13.8053L2.71459 18.6074ZM19.517 2.59909L14.509 7.36553C13.9942 7.87289 13.9942 8.69174 14.509 9.1991C15.0707 9.70645 15.9131 9.70202 16.428 9.19466L21.4827 4.39258V5.93695C21.4827 6.65348 22.0912 7.23202 22.84 7.23202C23.5889 7.23202 24.1973 6.65348 24.1973 5.93695V0H17.9725C17.2236 0 16.6152 0.582977 16.6152 1.2995C16.6152 2.01603 17.2236 2.59909 17.9725 2.59909H19.517Z" fill="#C4C4C4"/>
</svg>
