<svg width="26" height="24" viewBox="0 0 26 24" fill="none" xmlns="http://www.w3.org/2000/svg">
<path fill-rule="evenodd" clip-rule="evenodd" d="M11.3481 6.34005L1.10553 17.1735C-0.428306 18.79 -0.355809 21.2654 1.25898 22.8008C2.87802 24.3404 5.48128 24.4052 7.18128 22.9508L18.5742 13.2112C20.3211 13.2234 22.0509 12.6157 23.3291 11.3881C25.9707 8.88431 25.8855 4.69923 23.0735 2.04557C20.2998 -0.604049 15.8984 -0.681026 13.2654 1.82274C11.9744 3.05031 11.3353 4.67898 11.3481 6.34005ZM16.6356 11.9188L5.63879 21.3221C4.85057 21.9946 3.64055 21.9663 2.89067 21.2492C2.1408 20.5362 2.11117 19.3896 2.81844 18.6401C5.66029 15.638 10.7348 10.2699 12.7075 8.18344L16.6356 11.9188ZM18.9363 11.0072L13.6661 5.99568C13.7343 5.0274 14.139 4.09553 14.8974 3.37438C16.657 1.70115 19.5925 1.82674 21.4545 3.5972C23.3291 5.36767 23.457 8.16313 21.7101 9.83636C20.9347 10.5535 19.9546 10.9424 18.9363 11.0072Z" fill="#C4C4C4"/>
</svg>
