<svg width="26" height="23" viewBox="0 0 26 23" fill="none" xmlns="http://www.w3.org/2000/svg">
<path fill-rule="evenodd" clip-rule="evenodd" d="M14.2294 17.4395L15.6156 16.1174C16.1048 15.6522 16.1048 14.9015 15.6156 14.4363C15.1307 13.9712 14.3367 13.9712 13.8475 14.4363L9.52625 18.5452L13.8475 22.6542C14.3367 23.1153 15.1307 23.1153 15.6156 22.6542C16.1048 22.189 16.1048 21.4341 15.6156 20.969L14.2294 19.6511H19.31C22.6012 19.6511 25.2746 17.1049 25.2746 13.9752V5.6717C25.2746 2.54206 22.6012 0 19.31 0H5.96899C2.67342 0 0 2.54206 0 5.6717V13.9752C0 17.1049 2.67342 19.6511 5.96899 19.6511H7.1534V17.4395H5.96899C3.95646 17.4395 2.32591 15.8848 2.32591 13.9752V5.6717C2.32591 3.76209 3.95646 2.20754 5.96899 2.20754H19.31C21.3182 2.20754 22.9534 3.76209 22.9534 5.6717V13.9752C22.9534 15.8848 21.3182 17.4395 19.31 17.4395H14.2294Z" fill="#C4C4C4"/>
</svg>
