<svg width="28" height="28" viewBox="0 0 28 28" fill="none" xmlns="http://www.w3.org/2000/svg">
<path d="M21.5672 19.2098C23.0057 17.2832 23.8576 14.893 23.8576 12.3038C23.8576 5.92296 18.6849 0.75 12.3038 0.75C5.92266 0.75 0.75 5.92296 0.75 12.3038C0.75 18.6846 5.92266 23.8576 12.3038 23.8576C15.0572 23.8576 17.5861 22.8946 19.5711 21.2865L25.1133 26.8281C25.1133 26.8281 25.1134 26.8282 25.1134 26.8282C25.6755 27.3906 26.5872 27.3906 27.1494 26.8283C27.1494 26.8283 27.1494 26.8283 27.1494 26.8282C27.712 26.2663 27.7118 25.3544 27.1495 24.7921L21.5672 19.2098ZM12.3038 21.0969C7.44765 21.0969 3.51064 17.1599 3.51064 12.3038C3.51064 7.44765 7.44765 3.51064 12.3038 3.51064C17.1599 3.51064 21.0969 7.44765 21.0969 12.3038C21.0969 17.1599 17.1599 21.0969 12.3038 21.0969Z" fill="#C4C4C4" stroke="#C4C4C4" stroke-width="0.5"/>
</svg>
