<svg width="20" height="20" viewBox="0 0 20 20" fill="none" xmlns="http://www.w3.org/2000/svg">
<path fill-rule="evenodd" clip-rule="evenodd" d="M0 3.71183C0 1.66198 1.66198 0 3.71183 0H16.0846C18.1344 0 19.7964 1.66198 19.7964 3.71183C19.7964 5.76167 18.1344 7.42365 16.0846 7.42365H3.71183C1.66198 7.42365 0 5.76167 0 3.71183ZM2.77299 3.71183C2.77299 3.02855 3.32699 2.47455 4.01027 2.47455H15.7861C16.4694 2.47455 17.0234 3.02855 17.0234 3.71183C17.0234 4.39511 16.4694 4.9491 15.7861 4.9491H4.01027C3.32699 4.9491 2.77299 4.39511 2.77299 3.71183Z" fill="#C4C4C4"/>
<path d="M0 11.5662H19.7964V14.0408H0V11.5662Z" fill="#C4C4C4"/>
<path d="M0 17.5254H19.7964V20H0V17.5254Z" fill="#C4C4C4"/>
</svg>
