<svg width="26" height="24" viewBox="0 0 26 24" fill="none" xmlns="http://www.w3.org/2000/svg">
<path fill-rule="evenodd" clip-rule="evenodd" d="M0.102269 10.6369C-0.0414762 11.5817 -0.0330205 12.5465 0.123408 13.4993C0.360166 14.9586 1.27767 16.233 2.62211 16.9767C6.30453 19.015 15.0264 23.8432 15.0264 23.8432C15.4112 24.0523 15.8807 24.0523 16.2654 23.8432C16.6459 23.6342 16.8827 23.2482 16.8827 22.8301V1.17343C16.8827 0.755333 16.6459 0.365345 16.2654 0.156296C15.8807 -0.0527534 15.4112 -0.0527691 15.0264 0.1603C15.0264 0.1603 6.30453 4.98456 2.62211 7.02279C1.27767 7.76652 0.360166 9.04492 0.123408 10.5042L0.102269 10.6369ZM18.9121 3.28002C18.9121 3.2358 18.9332 3.19154 18.9755 3.16742C19.0135 3.13928 19.064 3.13525 19.1063 3.15133C22.8859 4.48602 25.5748 7.94738 25.5748 11.9997C25.5748 16.0561 22.8859 19.5135 19.1063 20.8522C19.064 20.8683 19.0135 20.8602 18.9755 20.8361C18.9374 20.8079 18.9121 20.7677 18.9121 20.7235C18.9121 20.233 18.9121 18.9748 18.9121 18.5366C18.9121 18.4441 18.967 18.3557 19.0557 18.3155C21.4614 17.1376 23.1101 14.7495 23.1101 11.9997C23.1101 9.24992 21.4614 6.86595 19.0557 5.68804C18.967 5.64382 18.9121 5.55941 18.9121 5.46293C18.9121 5.02473 18.9121 3.76646 18.9121 3.28002ZM2.55869 10.8741V10.8661C2.6813 10.1062 3.16347 9.43891 3.86106 9.05297L14.4134 3.21163C14.4134 3.21163 14.4134 18.1265 14.4134 20.4783C14.4134 20.5426 14.3798 20.6029 14.3206 20.6351C14.2614 20.6672 14.1938 20.6672 14.1346 20.6351C11.3105 19.0712 6.39352 16.3536 3.86106 14.9505C3.16347 14.5646 2.6813 13.8973 2.55869 13.1375C2.43609 12.3857 2.43609 11.6178 2.55869 10.8661V10.8741ZM18.9121 7.81072C18.9121 7.75444 18.9459 7.70215 18.9966 7.67803C19.0516 7.65391 19.1149 7.65794 19.1614 7.69412C20.5101 8.69113 21.381 10.2509 21.381 11.9997C21.381 13.7525 20.5101 15.3084 19.1614 16.3094C19.1149 16.3416 19.0516 16.3455 18.9966 16.3214C18.9459 16.2973 18.9121 16.2451 18.9121 16.1928C18.9121 14.842 18.9121 9.1615 18.9121 7.81072ZM0.102269 10.6329L0.119445 10.5123C0.115217 10.5525 0.106497 10.5927 0.102269 10.6329L0.0517339 10.9425L0.102269 10.6369V10.6329Z" fill="#C4C4C4"/>
</svg>
